<svg width="512" height="512" viewBox="0 0 512 512" fill="none" xmlns="http://www.w3.org/2000/svg">
  <rect width="512" height="512" rx="100" fill="#4F46E5"/>
  <path d="M256 456C366.457 456 456 366.457 456 256C456 145.543 366.457 56 256 56C145.543 56 56 145.543 56 256C56 366.457 145.543 456 256 456Z" fill="#4338CA"/>
  <path d="M256 416C344.366 416 416 344.366 416 256C416 167.634 344.366 96 256 96C167.634 96 96 167.634 96 256C96 344.366 167.634 416 256 416Z" fill="#4F46E5"/>
  <path d="M256 384C326.692 384 384 326.692 384 256C384 185.308 326.692 128 256 128C185.308 128 128 185.308 128 256C128 326.692 185.308 384 256 384Z" fill="#6366F1"/>
  <path d="M170 200H190V312H170V200Z" fill="white"/>
  <path d="M206 200H226V312H206V200Z" fill="white"/>
  <path d="M242 200H290C304.667 200 316.667 202.667 326 208C335.333 213.333 342.333 221 347 231C351.667 241 354 252.333 354 265C354 277.667 351.667 289 347 299C342.333 309 335.333 316.667 326 322C316.667 327.333 304.667 330 290 330H242V200ZM289 312C307 312 320.667 307.333 330 298C339.333 288.667 344 278 344 265C344 252 339.333 241.333 330 232C320.667 222.667 307 218 289 218H262V312H289Z" fill="white"/>
  <path d="M129 156L383 367.5" stroke="#818CF8" stroke-width="8" stroke-linecap="round"/>
  <path d="M383 156L129 367.5" stroke="#818CF8" stroke-width="8" stroke-linecap="round"/>
</svg>