<svg width="180" height="48" viewBox="0 0 180 48" fill="none" xmlns="http://www.w3.org/2000/svg">
  <path d="M16 12H20V36H16V12Z" fill="white"/>
  <path d="M26 12H30V36H26V12Z" fill="white"/>
  <path d="M36 12H46C49.3333 12 52 12.6667 54 14C56 15.3333 57.5 17.1667 58.5 19.5C59.5 21.8333 60 24.3333 60 27C60 29.6667 59.5 32.1667 58.5 34.5C57.5 36.8333 56 38.6667 54 40C52 41.3333 49.3333 42 46 42H36V12ZM45.5 38C48.8333 38 51.5 36.8333 53.5 34.5C55.5 32.1667 56.5 29.8333 56.5 27C56.5 24.1667 55.5 21.8333 53.5 19.5C51.5 17.1667 48.8333 16 45.5 16H40V38H45.5Z" fill="white"/>
  <path d="M69 23L81 36H76L65 24L76 12H81L69 23Z" fill="white"/>
  <path d="M74 24L85 12H90L79 24L90 36H85L74 24Z" fill="white"/>
  <path d="M95 18H97C97.3333 18 97.6667 17.8333 98 17.5C98.3333 17.1667 98.5 16.8333 98.5 16.5C98.5 16.1667 98.3333 15.8333 98 15.5C97.6667 15.1667 97.3333 15 97 15H95V18ZM95 33H97C97.3333 33 97.6667 32.8333 98 32.5C98.3333 32.1667 98.5 31.8333 98.5 31.5C98.5 31.1667 98.3333 30.8333 98 30.5C97.6667 30.1667 97.3333 30 97 30H95V33ZM91 12H97C98.3333 12 99.5 12.5 100.5 13.5C101.5 14.5 102 15.6667 102 17C102 17.6667 101.833 18.3333 101.5 19C101.167 19.6667 100.667 20.1667 100 20.5C100.667 20.8333 101.167 21.3333 101.5 22C101.833 22.6667 102 23.3333 102 24C102 25.3333 101.5 26.5 100.5 27.5C99.5 28.5 98.3333 29 97 29H95V36H91V12Z" fill="white"/>
  <path d="M109 18L109 12L113 12L113 18L118 18L118 22L113 22L113 36L109 36L109 22L104 22L104 18L109 18Z" fill="white"/>
  <path d="M126 12H130V36H126V12Z" fill="white"/>
  <path d="M137 12H141V32H149V36H137V12Z" fill="white"/>
  <path d="M160 36L153 24L160 12H164L158 23L164 36H160Z" fill="white"/>
  <rect x="5" y="12" width="170" height="30" rx="15" stroke="#4F46E5" stroke-width="2" stroke-dasharray="4 4"/>
  <path d="M10 6H170C172.761 6 175 8.23858 175 11V37C175 39.7614 172.761 42 170 42H10C7.23858 42 5 39.7614 5 37V11C5 8.23858 7.23858 6 10 6Z" stroke="#818CF8" stroke-width="2"/>
</svg>